<?xml version="1.0" encoding="UTF-8"?>
<svg id="Layer_1" data-name="Layer 1" xmlns="http://www.w3.org/2000/svg" viewBox="0 0 2500 688.37">
  <defs>
    <style>
      .cls-1 {
        fill: #a259ff;
      }

      .cls-1, .cls-2, .cls-3, .cls-4, .cls-5, .cls-6, .cls-7, .cls-8 {
        stroke-width: 0px;
      }

      .cls-2 {
        fill: none;
      }

      .cls-3, .cls-4 {
        fill: #fff;
      }

      .cls-4 {
        fill-rule: evenodd;
      }

      .cls-5 {
        fill: #1abcfe;
      }

      .cls-6 {
        fill: #0acf83;
      }

      .cls-7 {
        fill: #f24e1e;
      }

      .cls-8 {
        fill: #ff7262;
      }
    </style>
  </defs>
  <path class="cls-3" d="m604.31.26v530.92l68.19.26v-252.71h164.74v-66.89h-164.74V67.15h214.45V.26h-282.64Zm405.74,107.75c24.72,0,44.5-20.04,44.5-44.5s-20.04-44.5-44.5-44.5-44.5,20.04-44.5,44.5,20.04,44.5,44.5,44.5Zm-34.61,66.89v356.29h68.19V174.89h-68.19Z"/>
  <path class="cls-4" d="m1296.85,164.48c-90.83,0-154.07,76.77-154.07,167.86s63.24,167.86,154.07,167.86c41.64,0,75.73-16.14,100.72-42.16v47.11c0,59.08-46.33,108.27-106.96,108.27-21.86,0-43.46-8.33-60.64-20.3l-34.35,59.34c27.33,17.7,59.86,27.85,94.73,27.85,96.81,0,175.15-78.34,175.15-175.15V174.89h-67.93v31.75c-24.98-26.03-59.08-42.16-100.72-42.16Zm-85.62,167.86c0-56.48,43.2-100.98,93.17-100.98s93.17,44.5,93.17,100.98-43.2,100.98-93.17,100.98-93.17-44.5-93.17-100.98h0Z"/>
  <path class="cls-3" d="m1711.95,231.37c-40.34,0-73.13,34.35-73.13,74.69v225.12h-68.19V174.89h68.19v32.53c20.04-25.77,49.45-42.94,87.97-42.94,47.89,0,84.58,23.68,105.92,60.12,23.68-35.13,62.2-60.12,108.79-60.12,77.82,0,126.22,62.72,126.48,140.28v226.42h-68.19v-225.38c0-40.34-32.79-74.69-73.13-74.69s-73.13,34.35-73.13,74.69v225.38h-68.19v-225.38c-.26-40.34-33.05-74.43-73.39-74.43Z"/>
  <path class="cls-4" d="m2431.81,215.23c-30.45-31.49-72.09-50.75-120.24-50.75-101.5,0-173.85,86.14-173.85,188.68s72.09,188.68,173.85,188.68c48.15,0,89.79-19.52,120.24-50.75v40.08h68.19V174.89h-68.19v40.34Zm-225.64,137.93c0-67.93,52.05-121.8,112.95-121.8s112.95,53.61,112.95,121.8-52.05,121.8-112.95,121.8c-60.9-.26-112.95-53.87-112.95-121.8Z"/>
  <path class="cls-2" d="m0,.26h458.83v688.11H0V.26Z"/>
  <path class="cls-5" d="m229.28,344.32c0-63.24,51.27-114.77,114.77-114.77s114.77,51.27,114.77,114.77-51.27,114.77-114.77,114.77-114.77-51.53-114.77-114.77h0Z"/>
  <path class="cls-6" d="m0,573.6c0-63.24,51.27-114.77,114.77-114.77h114.77v114.77c0,63.24-51.27,114.77-114.77,114.77S0,637.1,0,573.6h0Z"/>
  <path class="cls-8" d="m229.28.26v229.28h114.77c63.24,0,114.77-51.27,114.77-114.77S407.56,0,344.06,0h-114.77v.26Z"/>
  <path class="cls-7" d="m0,115.03c0,63.24,51.27,114.77,114.77,114.77h114.77V.26h-114.77C51.27.26,0,51.53,0,115.03Z"/>
  <path class="cls-1" d="m0,344.32c0,63.24,51.27,114.77,114.77,114.77h114.77v-229.54h-114.77C51.27,229.54,0,281.07,0,344.32Z"/>
</svg>