<?xml version="1.0" encoding="UTF-8"?>
<svg id="Layer_1" data-name="Layer 1" xmlns="http://www.w3.org/2000/svg" xmlns:xlink="http://www.w3.org/1999/xlink" viewBox="0 0 511.31 313.09">
  <defs>
    <style>
      .cls-1 {
        fill: url(#linear-gradient-7);
      }

      .cls-1, .cls-2, .cls-3, .cls-4, .cls-5, .cls-6, .cls-7, .cls-8, .cls-9, .cls-10 {
        stroke-width: 0px;
      }

      .cls-1, .cls-3, .cls-8, .cls-9, .cls-10 {
        fill-rule: evenodd;
      }

      .cls-2 {
        fill: url(#linear-gradient);
      }

      .cls-3 {
        fill: url(#linear-gradient-3);
      }

      .cls-4 {
        fill: #539e43;
      }

      .cls-5 {
        fill: none;
      }

      .cls-6 {
        fill: #fff;
      }

      .cls-7 {
        fill: url(#linear-gradient-2);
      }

      .cls-8 {
        fill: url(#linear-gradient-5);
      }

      .cls-11 {
        mask: url(#mask-1);
      }

      .cls-12 {
        mask: url(#mask);
      }

      .cls-9 {
        fill: url(#linear-gradient-6);
      }

      .cls-10 {
        fill: url(#linear-gradient-4);
      }
    </style>
    <linearGradient id="linear-gradient" x1="-696.1" y1="694.75" x2="-696.5" y2="694.03" gradientTransform="translate(76074.92 86371.4) scale(108.99 -124.19)" gradientUnits="userSpaceOnUse">
      <stop offset="0" stop-color="#41873f"/>
      <stop offset=".33" stop-color="#418b3d"/>
      <stop offset=".64" stop-color="#419637"/>
      <stop offset=".93" stop-color="#3fa92d"/>
      <stop offset="1" stop-color="#3fae2a"/>
    </linearGradient>
    <mask id="mask" x="133.84" y="71.55" width="109.8" height="124.35" maskUnits="userSpaceOnUse">
      <g id="mask-3">
        <path id="path-2-2" data-name="path-2" class="cls-6" d="m191.74,72.35c-1.85-1.04-4.05-1.04-5.89,0l-48.66,28.08c-1.85,1.04-2.89,3-2.89,5.09v56.29c0,2.08,1.16,4.05,2.89,5.09l48.66,28.08c1.85,1.04,4.05,1.04,5.89,0l48.66-28.08c1.85-1.04,2.89-3,2.89-5.09v-56.29c0-2.08-1.16-4.05-2.89-5.09l-48.66-28.08h0Z"/>
      </g>
    </mask>
    <linearGradient id="linear-gradient-2" x1="-696.19" y1="694.37" x2="-695.03" y2="695.11" gradientTransform="translate(74287.89 86334.39) scale(106.45 -124.13)" gradientUnits="userSpaceOnUse">
      <stop offset=".14" stop-color="#41873f"/>
      <stop offset=".4" stop-color="#54a044"/>
      <stop offset=".71" stop-color="#66b848"/>
      <stop offset=".91" stop-color="#6cc04a"/>
    </linearGradient>
    <mask id="mask-1" x="133.84" y="62.06" width="111.3" height="135.34" maskUnits="userSpaceOnUse">
      <g id="mask-3-2" data-name="mask-3">
        <path id="path-2-3" data-name="path-2" class="cls-6" d="m191.74,72.35c-1.85-1.04-4.05-1.04-5.89,0l-48.66,28.08c-1.85,1.04-2.89,3-2.89,5.09v56.29c0,2.08,1.16,4.05,2.89,5.09l48.66,28.08c1.85,1.04,4.05,1.04,5.89,0l48.66-28.08c1.85-1.04,2.89-3,2.89-5.09v-56.29c0-2.08-1.16-4.05-2.89-5.09l-48.66-28.08h0Z"/>
      </g>
    </mask>
    <linearGradient id="linear-gradient-3" x1="12.95" y1="-404.23" x2="110.37" y2="-404.23" gradientTransform="translate(130.75 -77.92) scale(.92 -.35)" gradientUnits="userSpaceOnUse">
      <stop offset=".09" stop-color="#6cc04a"/>
      <stop offset=".29" stop-color="#66b848"/>
      <stop offset=".6" stop-color="#54a044"/>
      <stop offset=".86" stop-color="#41873f"/>
    </linearGradient>
    <linearGradient id="linear-gradient-4" x1="-696.66" y1="694.43" x2="-695.6" y2="694.43" gradientTransform="translate(74208.46 86404.46) scale(106.33 -124.23)" gradientUnits="userSpaceOnUse">
      <stop offset=".09" stop-color="#6cc04a"/>
      <stop offset=".29" stop-color="#66b848"/>
      <stop offset=".6" stop-color="#54a044"/>
      <stop offset=".86" stop-color="#41873f"/>
    </linearGradient>
    <linearGradient id="linear-gradient-5" x1="1227.17" y1="225.33" x2="1324.59" y2="225.33" gradientTransform="translate(-214.38 348.09) scale(.35 -.81)" gradientUnits="userSpaceOnUse">
      <stop offset=".09" stop-color="#6cc04a"/>
      <stop offset=".29" stop-color="#66b848"/>
      <stop offset=".6" stop-color="#54a044"/>
      <stop offset=".86" stop-color="#41873f"/>
    </linearGradient>
    <linearGradient id="linear-gradient-6" x1="-691.49" y1="686.37" x2="-689.44" y2="686.37" gradientTransform="translate(38174.22 23740.6) scale(55.01 -34.33)" gradientUnits="userSpaceOnUse">
      <stop offset=".09" stop-color="#6cc04a"/>
      <stop offset=".29" stop-color="#66b848"/>
      <stop offset=".6" stop-color="#54a044"/>
      <stop offset=".86" stop-color="#41873f"/>
    </linearGradient>
    <linearGradient id="linear-gradient-7" x1="-689.15" y1="688.98" x2="-690.41" y2="684.86" gradientTransform="translate(38174.22 23740.6) scale(55.01 -34.33)" gradientUnits="userSpaceOnUse">
      <stop offset="0" stop-color="#41873f"/>
      <stop offset=".33" stop-color="#418b3d"/>
      <stop offset=".64" stop-color="#419637"/>
      <stop offset=".93" stop-color="#3fa92d"/>
      <stop offset="1" stop-color="#3fae2a"/>
    </linearGradient>
  </defs>
  <path class="cls-4" d="m252.88,313.09c-1.73,0-3.35-.46-4.85-1.27l-15.37-9.13c-2.31-1.27-1.16-1.73-.46-1.96,3.12-1.04,3.7-1.27,6.93-3.12.35-.23.81-.12,1.16.12l11.79,7.05c.46.23,1.04.23,1.39,0l46.11-26.7c.46-.23.69-.69.69-1.27v-53.28c0-.58-.23-1.04-.69-1.27l-46.11-26.58c-.46-.23-1.04-.23-1.39,0l-46.11,26.58c-.46.23-.69.81-.69,1.27v53.28c0,.46.23,1.04.69,1.27l12.6,7.28c6.82,3.47,11.1-.58,11.1-4.62v-52.59c0-.69.58-1.39,1.39-1.39h5.89c.69,0,1.39.58,1.39,1.39v52.59c0,9.13-4.97,14.45-13.64,14.45-2.66,0-4.74,0-10.63-2.89l-12.14-6.93c-3-1.73-4.85-4.97-4.85-8.44v-53.28c0-3.47,1.85-6.7,4.85-8.44l46.11-26.7c2.89-1.62,6.82-1.62,9.71,0l46.11,26.7c3,1.73,4.85,4.97,4.85,8.44v53.28c0,3.47-1.85,6.7-4.85,8.44l-46.11,26.7c-1.5.69-3.24,1.04-4.85,1.04Zm14.22-36.64c-20.23,0-24.39-9.25-24.39-17.11,0-.69.58-1.39,1.39-1.39h6.01c.69,0,1.27.46,1.27,1.16.92,6.13,3.58,9.13,15.83,9.13,9.71,0,13.87-2.2,13.87-7.4,0-3-1.16-5.2-16.3-6.7-12.6-1.27-20.46-4.05-20.46-14.1,0-9.36,7.86-14.91,21.03-14.91,14.79,0,22.07,5.09,23,16.18,0,.35-.12.69-.35,1.04-.23.23-.58.46-.92.46h-6.01c-.58,0-1.16-.46-1.27-1.04-1.39-6.36-4.97-8.44-14.45-8.44-10.63,0-11.9,3.7-11.9,6.47,0,3.35,1.5,4.39,15.83,6.24,14.22,1.85,20.92,4.51,20.92,14.45-.12,10.17-8.44,15.95-23.12,15.95Z"/>
  <path class="cls-6" d="m109.8,104.71c0-2.08-1.16-4.05-3-5.09l-49-28.2c-.81-.46-1.73-.69-2.66-.81h-.46c-.92,0-1.85.35-2.66.81L3,99.63c-1.85,1.04-3,3-3,5.09l.12,75.82c0,1.04.58,2.08,1.5,2.54.92.58,2.08.58,2.89,0l29.13-16.64c1.85-1.04,3-3,3-5.09v-35.48c0-2.08,1.16-4.05,3-5.09l12.37-7.17c.92-.58,1.96-.81,3-.81s2.08.23,2.89.81l12.37,7.17c1.85,1.04,3,3,3,5.09v35.48c0,2.08,1.16,4.05,3,5.09l29.13,16.64c.92.58,2.08.58,3,0,.92-.46,1.5-1.5,1.5-2.54l-.12-75.82h0Z"/>
  <path class="cls-6" d="m345.34.35c-.92-.46-2.08-.46-2.89,0-.92.58-1.5,1.5-1.5,2.54v75.12c0,.69-.35,1.39-1.04,1.85-.69.35-1.39.35-2.08,0l-12.25-7.05c-1.85-1.04-4.05-1.04-5.89,0l-49,28.32c-1.85,1.04-3,3-3,5.09v56.52c0,2.08,1.16,4.05,3,5.09l49,28.32c1.85,1.04,4.05,1.04,5.89,0l49-28.32c1.85-1.04,3-3,3-5.09V21.84c0-2.2-1.16-4.16-3-5.2L345.34.35h0Zm-4.51,143.78c0,.58-.23,1.04-.69,1.27l-16.76,9.71c-.46.23-1.04.23-1.5,0l-16.76-9.71c-.46-.23-.69-.81-.69-1.27v-19.42c0-.58.23-1.04.69-1.27l16.76-9.71c.46-.23,1.04-.23,1.5,0l16.76,9.71c.46.23.69.81.69,1.27v19.42h0Z"/>
  <g>
    <path class="cls-6" d="m508.42,124.24c1.85-1.04,2.89-3,2.89-5.09v-13.75c0-2.08-1.16-4.05-2.89-5.09l-48.66-28.2c-1.85-1.04-4.05-1.04-5.89,0l-49,28.32c-1.85,1.04-3,3-3,5.09v56.52c0,2.08,1.16,4.05,3,5.09l48.66,27.74c1.85,1.04,4.05,1.04,5.78,0l29.47-16.41c.92-.46,1.5-1.5,1.5-2.54s-.58-2.08-1.5-2.54l-49.24-28.32c-.92-.58-1.5-1.5-1.5-2.54v-17.68c0-1.04.58-2.08,1.5-2.54l15.37-8.78c.92-.58,2.08-.58,3,0l15.37,8.78c.92.58,1.5,1.5,1.5,2.54v13.87c0,1.04.58,2.08,1.5,2.54.92.58,2.08.58,3,0l29.13-16.99h0Z"/>
    <path class="cls-4" d="m456.06,121.59c.35-.23.81-.23,1.16,0l9.36,5.43c.35.23.58.58.58,1.04v10.86c0,.46-.23.81-.58,1.04l-9.36,5.43c-.35.23-.81.23-1.16,0l-9.36-5.43c-.35-.23-.58-.58-.58-1.04v-10.86c0-.46.23-.81.58-1.04l9.36-5.43h0Z"/>
  </g>
  <g>
    <path id="path-2" class="cls-2" d="m191.74,72.35c-1.85-1.04-4.05-1.04-5.89,0l-48.66,28.08c-1.85,1.04-2.89,3-2.89,5.09v56.29c0,2.08,1.16,4.05,2.89,5.09l48.66,28.08c1.85,1.04,4.05,1.04,5.89,0l48.66-28.08c1.85-1.04,2.89-3,2.89-5.09v-56.29c0-2.08-1.16-4.05-2.89-5.09l-48.66-28.08h0Z"/>
    <g class="cls-12">
      <g>
        <path class="cls-5" d="m185.73,72.35l-48.77,28.08c-1.85,1.04-3.12,3-3.12,5.09v56.29c0,1.39.58,2.66,1.5,3.7l54.78-93.85c-1.39-.23-3-.12-4.39.69h0Z"/>
        <path class="cls-5" d="m190.47,195.55c.46-.12.92-.35,1.39-.58l48.77-28.08c1.85-1.04,3-3,3-5.09v-56.29c0-1.5-.69-3-1.73-4.05l-51.43,94.08h0Z"/>
        <path class="cls-7" d="m240.51,100.44l-48.89-28.08c-.46-.23-1.04-.46-1.5-.58l-54.78,93.85c.46.58,1.04,1.04,1.62,1.39l48.89,28.08c1.39.81,3,1.04,4.51.58l51.43-94.08c-.35-.46-.81-.81-1.27-1.16h0Z"/>
      </g>
    </g>
    <g class="cls-11">
      <g>
        <path class="cls-5" d="m243.63,161.81v-56.29c0-2.08-1.27-4.05-3.12-5.09l-48.89-28.08c-.58-.35-1.16-.58-1.85-.69l53.51,91.42c.23-.35.35-.81.35-1.27h0Z"/>
        <path class="cls-5" d="m136.96,100.44c-1.85,1.04-3.12,3-3.12,5.09v56.29c0,2.08,1.39,4.05,3.12,5.09l48.89,28.08c1.16.69,2.43.92,3.81.69l-52.36-95.35-.35.12h0Z"/>
        <path class="cls-3" d="m184.23,62.06l-.69.35h.92l-.23-.35Z"/>
        <path class="cls-10" d="m240.63,166.89c1.39-.81,2.43-2.2,2.89-3.7l-53.63-91.54c-1.39-.23-2.89-.12-4.16.69l-48.54,27.97,52.36,95.47c.69-.12,1.5-.35,2.2-.69l48.89-28.2h0Z"/>
        <path class="cls-8" d="m245.14,165.97l-.35-.58v.81l.35-.23Z"/>
        <path class="cls-9" d="m240.63,166.89l-48.77,28.08c-.69.35-1.39.58-2.2.69l.92,1.73,54.09-31.32v-.69l-1.39-2.31c-.23,1.62-1.27,3-2.66,3.81h0Z"/>
        <path class="cls-1" d="m240.63,166.89l-48.77,28.08c-.69.35-1.39.58-2.2.69l.92,1.73,54.09-31.32v-.69l-1.39-2.31c-.23,1.62-1.27,3-2.66,3.81h0Z"/>
      </g>
    </g>
  </g>
</svg>